# xmcd
# 
# Track frame offsets:
#     150
#     32133
#     52810
#     62812
#     81463
#     125224
#     146508
#     170107
#     191826
#     210524
#     236334
#     269283
#     298169
#     311746
#     335265
# 
# Disc length: 4745
# 
# Revision: 1
# Processed by: cddbd v1.5.2PL0 Copyright (c) Steve Scherf et al.
# Submitted via: fre:ac v1.0.17
# 
DISCID=eb12870f
DTITLE=Buddy Rich - 3 Classic Albums CD2
DYEAR=0
DGENRE=Jazz
TTITLE0=Willow Weep For Me (The Swinging Buddy Rich-1955)
TTITLE1=Yellow Rose Of Brooklin (Buddy And Sweets-1955)
TTITLE2=All Sweets
TTITLE3=NiceWork If You Can Get It
TTITLE4=Barney's Bugle
TTITLE5=Now's The Time
TTITLE6=You're Getting to Be A Habit With Me
TTITLE7=Blue And Sentimental (This one's For Basie-1956)
TTITLE8=Down For Double
TTITLE9=Jump For Me
TTITLE10=Blues For Basie
TTITLE11=Jumping At The Woodside
TTITLE12=Ain't It The Truth
TTITLE13=Shorty George
TTITLE14=9.20 Special
EXTD=
EXTT0=
EXTT1=
EXTT2=
EXTT3=
EXTT4=
EXTT5=
EXTT6=
EXTT7=
EXTT8=
EXTT9=
EXTT10=
EXTT11=
EXTT12=
EXTT13=
EXTT14=
PLAYORDER=
